<svg xmlns="http://www.w3.org/2000/svg" width="24" height="24" viewBox="0 0 24 24"><path d="M17.5,0H6.5A6.5,6.5,0,0,0,0,6.5V17.5A6.5,6.5,0,0,0,6.5,24H17.5A6.5,6.5,0,0,0,24,17.5V6.5A6.5,6.5,0,0,0,17.5,0Zm5.09,17.5a5.1,5.1,0,0,1-5.09,5.089H6.5A5.1,5.1,0,0,1,1.407,17.5V6.5A5.1,5.1,0,0,1,6.5,1.407H17.5A5.1,5.1,0,0,1,22.593,6.5Zm0,0" fill="#fff"/><path d="M122.585,116a6.582,6.582,0,1,0,6.582,6.582A6.589,6.589,0,0,0,122.585,116Zm0,11.752a5.17,5.17,0,1,1,5.17-5.17A5.176,5.176,0,0,1,122.585,127.756Zm0,0" transform="translate(-110.585 -110.585)" fill="#fff"/><path d="M359.909,66.285a1.932,1.932,0,1,0,1.932,1.932A1.934,1.934,0,0,0,359.909,66.285Zm0,2.462a.53.53,0,1,1,.53-.53A.531.531,0,0,1,359.909,68.748Zm0,0" transform="translate(-341.171 -63.189)" fill="#fff"/></svg>