<svg xmlns="http://www.w3.org/2000/svg" width="24" height="24" viewBox="0 0 24 24"><path d="M7.5,0H0V7.5H7.5ZM6,6H1.5V1.5H6Z" fill="#fff"/><rect width="2" height="2" transform="translate(3 3)" fill="#fff"/><path d="M352,0V7.5h7.5V0Zm6,6h-4.5V1.5H358Z" transform="translate(-335.5)" fill="#fff"/><rect width="1" height="2" transform="translate(20 3)" fill="#fff"/><path d="M0,359.5H7.5V352H0Zm1.5-6H6V358H1.5Z" transform="translate(0 -335.5)" fill="#fff"/><rect width="2" height="1" transform="translate(3 20)" fill="#fff"/><rect width="3" height="2" transform="translate(12)" fill="#fff"/><path d="M195,36.5h1.5V35H198V33.5h-4.5V32H192v3h3Z" transform="translate(-183 -30.5)" fill="#fff"/><rect width="2" height="2" transform="translate(9 6)" fill="#fff"/><path d="M198,160h-1.5v1.5H192V163h6Z" transform="translate(-183 -152.5)" fill="#fff"/><path d="M1.5,196.5H3V195H1.5v-3H0v6H1.5Z" transform="translate(0 -183)" fill="#fff"/><rect width="2" height="2" transform="translate(3 9)" fill="#fff"/><path d="M100.5,198h3v-1.5H102V195H99v-3H97.5v3H96v3h1.5v-1.5h3Z" transform="translate(-91.5 -183)" fill="#fff"/><rect width="1" height="3" transform="translate(14 12)" fill="#fff"/><path d="M196.5,352H192v1.5h3V358h-3v1.5h4.5V358h3v-1.5h-3Z" transform="translate(-183 -335.5)" fill="#fff"/><rect width="2" height="1" transform="translate(9 20)" fill="#fff"/><rect width="2" height="3" transform="translate(15 17)" fill="#fff"/><path d="M388.5,416H384v4.5h1.5v-3h3Z" transform="translate(-366 -396.5)" fill="#fff"/><rect width="3" height="1" transform="translate(21 23)" fill="#fff"/><rect width="1" height="1" transform="translate(23 17)" fill="#fff"/><path d="M353.5,292.5H355V288h-3v1.5h1.5Z" transform="translate(-335.5 -274.5)" fill="#fff"/><path d="M356.5,193.5H355V192h-1.5v1.5H352V195h6v-1.5h1.5V192h-3Z" transform="translate(-335.5 -183)" fill="#fff"/><rect width="3" height="1" transform="translate(21 14)" fill="#fff"/></svg>