<svg xmlns="http://www.w3.org/2000/svg" width="24" height="24" viewBox="0 0 24 24"><path d="M8.741,18.875c-3.834,0-6.865-.667-8.315-1.829L.4,17.024.372,17a1.17,1.17,0,0,1-.309-1.234l.013-.037a1.2,1.2,0,0,1,1.1-.75,9.945,9.945,0,0,0,2.618-.359,4.952,4.952,0,0,1-2.618-3.011,1.064,1.064,0,0,1,.374-1.245,1.1,1.1,0,0,1,.327-.166A7.2,7.2,0,0,1,.387,7.547l-.009-.03-.006-.03A1.1,1.1,0,0,1,1.419,6.146,5.556,5.556,0,0,1,1,4.861a5.353,5.353,0,0,1,.575-3.582L1.713,1A.8.8,0,0,1,2.986.789l.26.259A12.266,12.266,0,0,0,10.309,4.9a5.588,5.588,0,0,1,1.519-3.228A5.342,5.342,0,0,1,15.633,0h.009a7.648,7.648,0,0,1,3.146,1.019C19.465.8,20.28.457,21.126.1a1.072,1.072,0,0,1,1.2.209,1.041,1.041,0,0,1,.228,1.148q-.092.256-.209.5a1.07,1.07,0,0,1,.311.214,1.146,1.146,0,0,1,.287,1.075l-.01.036A4.387,4.387,0,0,1,21.158,5.7C21.021,12.99,15.5,18.875,8.741,18.875ZM1.718,16.3c1.366.769,3.97,1.235,7.023,1.235A10.542,10.542,0,0,0,16.54,14a12.616,12.616,0,0,0,3.274-8.584V5.383a.789.789,0,0,1,.423-.7,2.852,2.852,0,0,0,1.238-1.363.793.793,0,0,1-.76-.309.784.784,0,0,1-.006-.936,4.349,4.349,0,0,0,.3-.473c-.731.305-1.425.579-2.027.761a.865.865,0,0,1-.663-.071,6.585,6.585,0,0,0-2.674-.952,4.178,4.178,0,0,0-4.029,4.225.794.794,0,0,1-.948.776A13.952,13.952,0,0,1,2.58,2.29a3.941,3.941,0,0,0-.262,2.315A4.884,4.884,0,0,0,3.485,6.856a.791.791,0,0,1-.8,1.285,3.65,3.65,0,0,1-.741-.283,6.689,6.689,0,0,0,2.3,2.656.79.79,0,0,1-.508,1.44,3.587,3.587,0,0,1-1.054-.227,3.622,3.622,0,0,0,2.891,2.039.79.79,0,0,1,.236,1.478A9.583,9.583,0,0,1,1.718,16.3Zm0,0" transform="translate(0.952 2.864)" fill="#fff"/><rect width="24" height="24" fill="none"/></svg>